<?xml version="1.0" encoding="utf-8"?>
<!-- Generator: Adobe Illustrator 19.1.1, SVG Export Plug-In . SVG Version: 6.00 Build 0)  -->
<svg version="1.1" id="Layer_1" xmlns="http://www.w3.org/2000/svg" xmlns:xlink="http://www.w3.org/1999/xlink" x="0px" y="0px"
	 viewBox="-464 266 30 30" style="enable-background:new -464 266 30 30;" xml:space="preserve">
<style type="text/css">
	.st0{fill:none;}
	.st1{fill:#A4B1C1;}
	.st2{fill:#FFFFFF;}
</style>
<path class="st0" d="M-2225,1559h24v24h-24V1559z"/>
<path class="st1" d="M-437,266L-437,266h-16h-8c-1.2,0-2.9,1.8-2.9,3v11.9v12.1c0,1.2,1.8,3.1,3,3.1h0.1h16h8c1.2,0,2.9-1.8,2.9-3
	v-11.9v-12.1C-434,267.9-435.8,266-437,266z"/>
<g>
	<path class="st2" d="M-449.2,271.7c3.2,0,6.4,1.5,6.4,5c0,3.3-3.7,4.5-4.5,5.7c-0.6,0.9-0.4,2.1-2.1,2.1c-1.1,0-1.6-0.9-1.6-1.7
		c0-3,4.4-3.7,4.4-6.1c0-1.4-0.9-2.2-2.4-2.2c-3.2,0-2,3.3-4.4,3.3c-0.9,0-1.6-0.5-1.6-1.5C-455.1,273.9-452.3,271.7-449.2,271.7
		L-449.2,271.7z M-449.4,286.2c1.1,0,2.1,0.9,2.1,2.1s-0.9,2.1-2.1,2.1c-1.1,0-2.1-0.9-2.1-2.1
		C-451.4,287.1-450.5,286.2-449.4,286.2L-449.4,286.2z M-449.4,286.2"/>
</g>
</svg>
