<?xml version="1.0" encoding="utf-8"?>
<!-- Generator: Adobe Illustrator 19.1.1, SVG Export Plug-In . SVG Version: 6.00 Build 0)  -->
<svg version="1.1" id="Layer_1" xmlns="http://www.w3.org/2000/svg" xmlns:xlink="http://www.w3.org/1999/xlink" x="0px" y="0px"
	 viewBox="-369 269 24 24" style="enable-background:new -369 269 24 24;" xml:space="preserve">
<style type="text/css">
	.st0{fill:#838A9B;}
	.st1{fill:#FFFFFF;}
	.st2{fill:none;}
	.st3{fill:#A4B1C1;}
</style>
<g>
	<path id="settings_1_" class="st0" d="M-345.8,279.3l-2.4-0.4c-0.2-0.7-0.4-1.4-0.8-2l1.5-1.9c0.3-0.4,0.3-1,0-1.4l-0.9-1.1
		c-0.3-0.4-0.9-0.5-1.3-0.2l-2,1.3c-0.9-0.6-1.9-1.1-3-1.4l-0.4-2.4c-0.1-0.5-0.5-0.9-1-0.9h-1.4c-0.5,0-1,0.4-1,0.9l-0.4,2.4
		c-0.9,0.2-1.8,0.6-2.5,1l-1.9-1.4c-0.4-0.3-1-0.3-1.4,0.1l-1,1c-0.4,0.4-0.4,0.9-0.1,1.4l1.4,1.9c-0.5,0.8-0.8,1.6-1,2.5l-2.4,0.4
		c-0.5,0.1-0.9,0.5-0.9,1v1.4c0,0.5,0.4,1,0.9,1l2.4,0.4c0.2,0.7,0.4,1.4,0.8,2.1l-1.5,1.9c-0.3,0.4-0.3,1,0,1.4l0.9,1.1
		c0.3,0.4,0.9,0.5,1.3,0.2l2.1-1.3c0.9,0.6,1.9,1,2.9,1.3l0.4,2.4c0.1,0.5,0.5,0.9,1,0.9h1.4c0.5,0,1-0.4,1-0.9l0.4-2.4
		c0.9-0.2,1.7-0.6,2.5-1l2,1.4c0.4,0.3,1,0.3,1.4-0.1l1-1c0.4-0.4,0.4-0.9,0.1-1.4l-1.4-2c0.5-0.8,0.8-1.6,1-2.5l2.4-0.4
		c0.5-0.1,0.9-0.5,0.9-1v-1.4C-345,279.8-345.3,279.3-345.8,279.3z M-356.9,285.5c-2.5,0-4.5-2-4.5-4.5c0-2.5,2-4.5,4.5-4.5
		c2.5,0,4.5,2,4.5,4.5C-352.4,283.5-354.4,285.5-356.9,285.5z"/>
</g>
</svg>
