<?xml version="1.0" encoding="utf-8"?>
<!-- Generator: Adobe Illustrator 19.1.1, SVG Export Plug-In . SVG Version: 6.00 Build 0)  -->
<svg version="1.1" id="Layer_1" xmlns="http://www.w3.org/2000/svg" xmlns:xlink="http://www.w3.org/1999/xlink" x="0px" y="0px"
	 viewBox="-282 492 34 30" style="enable-background:new -282 492 34 30;" xml:space="preserve">
<style type="text/css">
	.st0{fill:#838A9B;}
	.st1{fill:#FFFFFF;}
	.st2{fill:none;}
	.st3{fill:#A4B1C1;}
</style>
<path class="st2" d="M-279,495h24v24h-24V495z"/>
<g>
	<g>
		<rect x="-255" y="511" class="st3" width="3" height="11"/>
		<rect x="-259" y="515" class="st3" width="11" height="3"/>
	</g>
	<path class="st3" d="M-255,492h-24.1c-1.2,0-2.9,1.8-2.9,3v23.9c0,1.2,1.9,3.1,3.1,3.1h16c-0.6-1.4-1-2.9-1-4.5
		c0-5.8,4.7-10.5,10.5-10.5c0.5,0,1-0.1,1.5,0v-11.9C-252,493.9-253.8,492-255,492z M-268,513v-5c-4.4-0.4-8.3,1.3-10.5,5.5
		c-0.2-6.1,4.4-11.3,10.5-11.5v-5l8,8L-268,513z"/>
</g>
</svg>
